<svg width="86" height="25" viewBox="0 0 86 25" fill="none" xmlns="http://www.w3.org/2000/svg">
<path d="M24.0363 15.0615L21.889 17.8445L16.5303 17.8775" stroke="white" stroke-width="1.41268" stroke-miterlimit="10"/>
<path d="M21.1874 20.4998L17.9288 21.8277L13.2764 19.1719" stroke="white" stroke-width="1.41268" stroke-miterlimit="10"/>
<path d="M15.988 23.7778L12.5081 23.2928L9.81934 18.6592" stroke="white" stroke-width="1.41268" stroke-miterlimit="10"/>
<path d="M9.85284 24.0034L7.08398 21.8373V16.4785" stroke="white" stroke-width="1.41268" stroke-miterlimit="10"/>
<path d="M4.42823 21.1166L3.11914 17.8533L5.80795 13.2197" stroke="white" stroke-width="1.41268" stroke-miterlimit="10"/>
<path d="M1.18359 15.8993L1.69216 12.4194L6.34459 9.75879" stroke="white" stroke-width="1.41268" stroke-miterlimit="10"/>
<path d="M1 9.75863L3.18495 7.00391L8.54372 7.03686" stroke="white" stroke-width="1.41268" stroke-miterlimit="10"/>
<path d="M3.91992 4.35293L7.19264 3.06738L11.8121 5.78915" stroke="white" stroke-width="1.41268" stroke-miterlimit="10"/>
<path d="M9.16113 1.14648L12.6363 1.6786L15.2639 6.34516" stroke="white" stroke-width="1.41268" stroke-miterlimit="10"/>
<path d="M15.3008 1L18.0414 3.20379L17.9708 8.56257" stroke="white" stroke-width="1.41268" stroke-miterlimit="10"/>
<path d="M20.6835 3.95801L21.9502 7.23543L19.2002 11.8361" stroke="white" stroke-width="1.41268" stroke-miterlimit="10"/>
<path d="M23.8574 9.21777L23.3065 12.6883L18.6211 15.2876" stroke="white" stroke-width="1.41268" stroke-miterlimit="10"/>
<path d="M33.1561 17.502V7.42195H34.8431V15.92H39.2951V17.502H33.1561ZM40.481 17.502L43.659 7.42195H46.13L49.308 17.502H47.572L44.688 8.45795H45.066L42.217 17.502H40.481ZM42.252 15.318V13.743H47.544V15.318H42.252ZM51.2736 17.502V7.42195H55.4386C55.5366 7.42195 55.6626 7.42662 55.8166 7.43595C55.9706 7.44062 56.1129 7.45462 56.2436 7.47795C56.8269 7.56662 57.3076 7.76029 57.6856 8.05895C58.0682 8.35762 58.3506 8.73562 58.5326 9.19295C58.7192 9.64562 58.8126 10.1496 58.8126 10.705C58.8126 11.2556 58.7192 11.7596 58.5326 12.217C58.3459 12.6696 58.0612 13.0453 57.6786 13.344C57.3006 13.6426 56.8222 13.8363 56.2436 13.925C56.1129 13.9436 55.9682 13.9576 55.8096 13.967C55.6556 13.9763 55.5319 13.981 55.4386 13.981H52.9606V17.502H51.2736ZM52.9606 12.406H55.3686C55.4619 12.406 55.5669 12.4013 55.6836 12.392C55.8002 12.3826 55.9076 12.364 56.0056 12.336C56.2856 12.266 56.5049 12.1423 56.6636 11.965C56.8269 11.7876 56.9412 11.587 57.0066 11.363C57.0766 11.139 57.1116 10.9196 57.1116 10.705C57.1116 10.4903 57.0766 10.271 57.0066 10.047C56.9412 9.81829 56.8269 9.61529 56.6636 9.43795C56.5049 9.26062 56.2856 9.13695 56.0056 9.06695C55.9076 9.03895 55.8002 9.02262 55.6836 9.01795C55.5669 9.00862 55.4619 9.00395 55.3686 9.00395H52.9606V12.406ZM61.055 17.502V7.42195H62.742V17.502H61.055ZM69.5988 17.712C68.7961 17.712 68.0891 17.5486 67.4778 17.222C66.8711 16.8953 66.3951 16.4356 66.0498 15.843C65.7091 15.2503 65.5388 14.555 65.5388 13.757V7.43595L67.2468 7.42195V13.715C67.2468 14.093 67.3098 14.4313 67.4358 14.73C67.5665 15.0286 67.7415 15.283 67.9608 15.493C68.1801 15.6983 68.4321 15.8546 68.7168 15.962C69.0015 16.0693 69.2955 16.123 69.5988 16.123C69.9115 16.123 70.2078 16.0693 70.4878 15.962C70.7725 15.85 71.0245 15.6913 71.2438 15.486C71.4631 15.276 71.6358 15.0216 71.7618 14.723C71.8878 14.4243 71.9508 14.0883 71.9508 13.715V7.42195H73.6588V13.757C73.6588 14.555 73.4861 15.2503 73.1408 15.843C72.8001 16.4356 72.3241 16.8953 71.7128 17.222C71.1061 17.5486 70.4015 17.712 69.5988 17.712ZM79.6221 17.712C78.8848 17.712 78.2198 17.5836 77.6271 17.327C77.0391 17.0703 76.5538 16.704 76.1711 16.228C75.7931 15.7473 75.5528 15.178 75.4501 14.52L77.2001 14.254C77.3495 14.8513 77.6551 15.3133 78.1171 15.64C78.5838 15.9666 79.1205 16.13 79.7271 16.13C80.0865 16.13 80.4248 16.074 80.7421 15.962C81.0595 15.85 81.3161 15.6866 81.5121 15.472C81.7128 15.2573 81.8131 14.9936 81.8131 14.681C81.8131 14.541 81.7898 14.4126 81.7431 14.296C81.6965 14.1746 81.6265 14.0673 81.5331 13.974C81.4445 13.8806 81.3278 13.7966 81.1831 13.722C81.0431 13.6426 80.8798 13.575 80.6931 13.519L78.0891 12.749C77.8651 12.6836 77.6225 12.5973 77.3611 12.49C77.1045 12.378 76.8595 12.2263 76.6261 12.035C76.3975 11.839 76.2085 11.5916 76.0591 11.293C75.9145 10.9896 75.8421 10.6163 75.8421 10.173C75.8421 9.52429 76.0055 8.98062 76.3321 8.54195C76.6635 8.09862 77.1068 7.76729 77.6621 7.54795C78.2221 7.32862 78.8428 7.22129 79.5241 7.22595C80.2148 7.23062 80.8308 7.34962 81.3721 7.58295C81.9135 7.81162 82.3661 8.14529 82.7301 8.58395C83.0941 9.02262 83.3508 9.55229 83.5001 10.173L81.6871 10.488C81.6125 10.1333 81.4678 9.83229 81.2531 9.58495C81.0431 9.33295 80.7841 9.14162 80.4761 9.01095C80.1728 8.88029 79.8485 8.81029 79.5031 8.80095C79.1671 8.79629 78.8545 8.84762 78.5651 8.95495C78.2805 9.05762 78.0495 9.20695 77.8721 9.40295C77.6995 9.59895 77.6131 9.82762 77.6131 10.089C77.6131 10.3363 77.6878 10.5393 77.8371 10.698C77.9865 10.852 78.1708 10.9756 78.3901 11.069C78.6141 11.1576 78.8405 11.2323 79.0691 11.293L80.8751 11.797C81.1225 11.8623 81.4001 11.951 81.7081 12.063C82.0161 12.175 82.3125 12.3313 82.5971 12.532C82.8818 12.7326 83.1151 12.9963 83.2971 13.323C83.4838 13.6496 83.5771 14.065 83.5771 14.569C83.5771 15.0916 83.4675 15.5513 83.2481 15.948C83.0335 16.34 82.7418 16.6666 82.3731 16.928C82.0045 17.1893 81.5821 17.3853 81.1061 17.516C80.6348 17.6466 80.1401 17.712 79.6221 17.712Z" fill="white"/>
</svg>
